# xmcd CD database file
#
# Track frame offsets:
#	150
#	13700
#	32500
#	49618
#	69025
#	90615
#	112151
#	132888
#	156886
#	178422
#	213431
#
# Disc length: 3037 seconds
#
# Revision: 0
# Processed by: cddbd v1.5.2PL0 Copyright (c) Steve Scherf et al.
# Submitted via: Feurio! 1.68 - http://www.feurio.com
#
DISCID=900bdb0b
DTITLE=Buddy and Julie Miller - Austin 2000 1
DYEAR=1900
DGENRE=
TTITLE0=Wallflower
TTITLE1=Help Wanted (we tune a lot)
TTITLE2=All My Tears
TTITLE3=Love Match
TTITLE4=Does My Ring Burn Your Finger
TTITLE5=Out In The Rain
TTITLE6=Broken Things
TTITLE7=Strange Lover
TTITLE8=I Know Why The River Runs
TTITLE9=Orphan Story
TTITLE10=Orphan Song
EXTD=
EXTT0=
EXTT1=
EXTT2=
EXTT3=
EXTT4=
EXTT5=
EXTT6=
EXTT7=
EXTT8=
EXTT9=
EXTT10=
PLAYORDER=
